<svg width="402" height="1260" viewBox="0 0 402 1260" fill="none" xmlns="http://www.w3.org/2000/svg">
<g clip-path="url(#clip0_1122_4275)">
<rect width="402" height="1260" fill="#0B2328"/>
<circle cx="150" cy="150" r="150" transform="matrix(-1 0 0 1 620 -67)" fill="url(#paint0_linear_1122_4275)"/>
<path d="M-80 328C-80 438.457 9.54305 528 120 528C230.457 528 320 438.457 320 328C320 217.543 230.457 128 120 128C9.54305 128 -80 217.543 -80 328Z" fill="url(#paint1_linear_1122_4275)"/>
<circle cx="100" cy="100" r="100" transform="matrix(-1 0 0 1 70 413)" fill="url(#paint2_linear_1122_4275)"/>
<circle cx="75" cy="75" r="75" transform="matrix(-1 0 0 1 470 863)" fill="url(#paint3_linear_1122_4275)"/>
</g>
<defs>
<linearGradient id="paint0_linear_1122_4275" x1="150" y1="0" x2="150" y2="300" gradientUnits="userSpaceOnUse">
<stop stop-color="#108983"/>
<stop offset="0.5" stop-color="#2B8EA1"/>
<stop offset="1" stop-color="#051214"/>
</linearGradient>
<linearGradient id="paint1_linear_1122_4275" x1="163" y1="128" x2="163" y2="528" gradientUnits="userSpaceOnUse">
<stop stop-color="#108983"/>
<stop offset="0.5" stop-color="#2B8EA1"/>
<stop offset="1" stop-color="#051214"/>
</linearGradient>
<linearGradient id="paint2_linear_1122_4275" x1="100" y1="0" x2="100" y2="200" gradientUnits="userSpaceOnUse">
<stop stop-color="#108983"/>
<stop offset="0.5" stop-color="#2B8EA1"/>
<stop offset="1" stop-color="#051214"/>
</linearGradient>
<linearGradient id="paint3_linear_1122_4275" x1="75" y1="0" x2="75" y2="150" gradientUnits="userSpaceOnUse">
<stop stop-color="#108983"/>
<stop offset="0.5" stop-color="#2B8EA1"/>
<stop offset="1" stop-color="#051214"/>
</linearGradient>
<clipPath id="clip0_1122_4275">
<rect width="402" height="1260" fill="white"/>
</clipPath>
</defs>
</svg>
