<svg width="744" height="816" viewBox="0 0 744 816" fill="none" xmlns="http://www.w3.org/2000/svg">
<g clip-path="url(#clip0_1122_4203)">
<rect width="744" height="816" fill="#0B2328"/>
<circle cx="150" cy="150" r="150" transform="matrix(-1 0 0 1 924 -67)" fill="url(#paint0_linear_1122_4203)"/>
<path d="M20 413C20 523.457 109.543 613 220 613C330.457 613 420 523.457 420 413C420 302.543 330.457 213 220 213C109.543 213 20 302.543 20 413Z" fill="url(#paint1_linear_1122_4203)"/>
<circle cx="100" cy="100" r="100" transform="matrix(-1 0 0 1 120 413)" fill="url(#paint2_linear_1122_4203)"/>
<circle cx="75" cy="75" r="75" transform="matrix(-1 0 0 1 718 453)" fill="url(#paint3_linear_1122_4203)"/>
</g>
<defs>
<linearGradient id="paint0_linear_1122_4203" x1="150" y1="0" x2="150" y2="300" gradientUnits="userSpaceOnUse">
<stop stop-color="#108983"/>
<stop offset="0.5" stop-color="#2B8EA1"/>
<stop offset="1" stop-color="#051214"/>
</linearGradient>
<linearGradient id="paint1_linear_1122_4203" x1="263" y1="213" x2="263" y2="613" gradientUnits="userSpaceOnUse">
<stop stop-color="#108983"/>
<stop offset="0.5" stop-color="#2B8EA1"/>
<stop offset="1" stop-color="#051214"/>
</linearGradient>
<linearGradient id="paint2_linear_1122_4203" x1="100" y1="0" x2="100" y2="200" gradientUnits="userSpaceOnUse">
<stop stop-color="#108983"/>
<stop offset="0.5" stop-color="#2B8EA1"/>
<stop offset="1" stop-color="#051214"/>
</linearGradient>
<linearGradient id="paint3_linear_1122_4203" x1="75" y1="0" x2="75" y2="150" gradientUnits="userSpaceOnUse">
<stop stop-color="#108983"/>
<stop offset="0.5" stop-color="#2B8EA1"/>
<stop offset="1" stop-color="#051214"/>
</linearGradient>
<clipPath id="clip0_1122_4203">
<rect width="744" height="816" fill="white"/>
</clipPath>
</defs>
</svg>
