<svg xmlns="http://www.w3.org/2000/svg" viewBox="0 0 1252.8789 728.9267"><path d="M841.6657,555.38l-11.2063-9.3141-73.364-60.9777a149.9186,149.9186,0,0,1-130.0945,75.305q-5.9425,0-11.7718-.4551h-.01A149.9825,149.9825,0,1,1,755.7869,333.5145l133.501-111.6A309.96,309.96,0,0,0,644.0456,101.8668c-171.4748,0-310.485,139.0076-310.485,310.4824s139.01,310.485,310.485,310.485A309.9892,309.9892,0,0,0,891.99,599.2515v-2.0438Z" transform="translate(-333.5606 -75.3282)" fill="#1a5662"/><polyline points="405.912 271.825 422.226 258.186 555.727 146.586 557.871 144.794" fill="none"/><polyline points="409.542 398.13 416.406 403.834 423.535 409.76 496.899 470.738 508.105 480.052 558.429 521.88" fill="none"/><path d="M891.99,382.3681V599.2515L841.6657,555.38,830.66,545.7859c-.0669.0951-.1337.1876-.2006.28C754.9257,651.1412,613.6479,648,613.6479,648l1.5709-88.0614h.01c93.8277-.8535,125.9272-58.79,134.7374-80.7757a70.7332,70.7332,0,0,0,2.8511-8.3372L649.2926,468.73l-3.1467-86.3621Z" transform="translate(-333.5606 -75.3282)" fill="#f7b53b"/><path d="M1302.4315,102.98l-81.47,162.302a149.9866,149.9866,0,1,1-27.2972,280.2109V711.8105a310.7036,310.7036,0,0,0,82.29,11.0237c171.4774,0,310.485-139.01,310.485-310.485C1586.4394,249.7926,1461.5148,116.4151,1302.4315,102.98Z" transform="translate(-333.5606 -75.3282)" fill="#18c9c0"/><path d="M1314.3659,79.195l-11.9348,23.786-81.4666,162.3006-29.8368,59.4232-5.7168-45.0537a149.9748,149.9748,0,0,0-16.7922,250.5223,53.5658,53.5658,0,0,0,7.3877,6.2061V706.4019C1062.65,667.8765,978.725,565.6435,966.8976,442.3456q-1.4142-14.805-1.42-29.992c0-120.2784,68.3741-224.5762,168.3874-276.1343l-28.2734-60.8911Z" transform="translate(-333.5606 -75.3282)" fill="#f7b53b"/><path d="M1176.0064,536.38V804.2549H951.3705l109.3581-134.7791C964.081,599.98,939.5073,434.6477,939.5073,434.6477l27.39,7.6979,163.864,46.02a150.6265,150.6265,0,0,0,37.8571,41.8074A53.5658,53.5658,0,0,0,1176.0064,536.38Z" transform="translate(-333.5606 -75.3282)" fill="#1a5662"/><polyline points="860.104 467.519 860.104 470.165 860.104 636.482" fill="none"/><line x1="851.7745" y1="203.7103" x2="800.3038" y2="60.8978" fill="none"/></svg>