<svg xmlns="http://www.w3.org/2000/svg" viewBox="0 0 1252.8789 929.3436"><path d="M1156.5341,861.9671a4.46,4.46,0,0,1,2.507,2.1781,5.5287,5.5287,0,0,1,.5424,2.2294l3.0537,29.7852a4.4843,4.4843,0,0,1-8.9219.9139c-1.67-12.7357-11.651-26.3812-29.089-26.3812h-17.3526v50.6783h11.89c5.3556,0,11.4972-4.2282,11.4972-9.1824a4.4844,4.4844,0,1,1,8.9688,0V939.522a4.4844,4.4844,0,1,1-8.9688,0c0-4.9542-6.1416-9.1824-11.4972-9.1824h-11.89v34.4148c0,3.1092.0513,11.5528,7.9567,12.7657a4.4844,4.4844,0,0,1,0,8.9688h-44.8657a4.4844,4.4844,0,0,1,0-8.9688c8.828-1.0763,7.9353-9.2593,7.9353-12.7657V883.4582c0-3.5064.8927-11.69-7.9353-12.7657a4.4845,4.4845,0,0,1,0-8.9689h84.4269A4.9535,4.9535,0,0,1,1156.5341,861.9671Z" transform="translate(-333.5606 -75.3282)" fill="#1a5662"/><path d="M1291.8161,861.9671a4.4679,4.4679,0,0,1,2.5113,2.1781,5.5946,5.5946,0,0,1,.5381,2.2294l3.0537,29.7852a4.4822,4.4822,0,0,1-8.9176.9139c-1.6742-12.7357-11.6552-26.3812-29.089-26.3812h-17.3568v50.6783H1254.45c5.3557,0,11.4972-4.2282,11.4972-9.1824a4.4823,4.4823,0,1,1,8.9646,0V939.522a4.4823,4.4823,0,1,1-8.9646,0c0-4.9542-6.1415-9.1824-11.4972-9.1824h-11.8944v34.4148c0,3.1092.0512,11.5528,7.9609,12.7657a4.4844,4.4844,0,0,1,0,8.9688h-44.87a4.4844,4.4844,0,0,1,0-8.9688c8.8322-1.0763,7.9353-9.2593,7.9353-12.7657V883.4582c0-3.5064.8969-11.69-7.9353-12.7657a4.4845,4.4845,0,0,1,0-8.9689h84.4268A4.9532,4.9532,0,0,1,1291.8161,861.9671Z" transform="translate(-333.5606 -75.3282)" fill="#1a5662"/><path d="M1428.0592,861.92a4.496,4.496,0,0,1,2.6949,2.302,5.441,5.441,0,0,1,.4912,2.0714l3.0622,29.8663a4.4843,4.4843,0,0,1-8.9219.9139c-1.67-12.7315-11.6509-26.3812-29.0847-26.3812h-17.3568v50.6826h11.89c5.36,0,11.5015-4.2282,11.5015-9.1867a4.4823,4.4823,0,0,1,8.9646,0v27.3379a4.4823,4.4823,0,0,1-8.9646,0c0-4.9585-6.1415-9.1867-11.5015-9.1867h-11.89v47.18h17.3568c17.4338,0,27.4148-13.6455,29.0847-26.3813a4.4843,4.4843,0,0,1,8.9219.914l-3.0708,29.9389a5.3541,5.3541,0,0,1-.4185,1.8578,4.4819,4.4819,0,0,1-2.7462,2.443,4.92,4.92,0,0,1-1.61.1964h-84.4268a4.4844,4.4844,0,0,1,0-8.9688c8.8322-1.0763,7.9353-9.2593,7.9353-12.7657V883.4582c0-3.5064.8969-11.69-7.9353-12.7657a4.4845,4.4845,0,0,1,0-8.9689h84.4268A5.0583,5.0583,0,0,1,1428.0592,861.92Z" transform="translate(-333.5606 -75.3282)" fill="#1a5662"/><path d="M1480.4434,861.7236h45.92c21.76,0,47.4666,11.9542,47.4666,40.2574,0,17.438-8.0165,30.8315-22.2812,37.746l15.8791,26.8255c3.4381,5.4624,7.978,10.9676,13.0006,10.9676a4.4844,4.4844,0,0,1,0,8.9688h-18.0957c-16.097,0-19.6418-5.6333-24.31-14.0042l-16.3319-27.5472h-8.7126v19.8169c0,3.1135.0513,11.557,7.961,12.7657a4.4844,4.4844,0,0,1,0,8.9688h-44.87a4.4844,4.4844,0,0,1,0-8.9688c8.8322-1.0763,7.9353-9.2593,7.9353-12.7657V883.4582c0-3.4467.5039-11.7364-7.9353-12.7657a4.4823,4.4823,0,0,1,0-8.9646Zm32.54,21.5509v52.6942h7.7858c17.2971,0,24.0835-17.263,24.0835-33.9835,0-12.629-10.092-31.2927-23.3361-31.2927h-8.5332Z" transform="translate(-333.5606 -75.3282)" fill="#1a5662"/><path d="M970.8768,862.3751l-16.531,32.9325a30.4336,30.4336,0,1,1-5.5388,56.8572v33.7473a63.0087,63.0087,0,1,0,22.07-123.537Z" transform="translate(-333.5606 -75.3282)" fill="#18c9c0"/><path d="M973.2993,857.5559l-2.4218,4.8249-16.5243,32.9181a30.4662,30.4662,0,0,0-22.7464,29.4531,30.2379,30.2379,0,0,0,4.4338,15.8163,30.9587,30.9587,0,0,0,7.6753,8.4949,9.7855,9.7855,0,0,0,1.509,1.2482V984.813a63.0718,63.0718,0,0,1-42.4377-53.5781c-.1863-2.012-.2794-4.024-.2794-6.0918a62.9708,62.9708,0,0,1,34.1662-56.0184l-5.7378-12.3513Z" transform="translate(-333.5606 -75.3282)" fill="#f7b53b"/><path d="M954.3458,895.3076l-6.0526,12.0583-1.1607-9.1418A30.201,30.201,0,0,1,954.3458,895.3076Z" transform="translate(-333.5606 -75.3282)" fill="#f7b53b"/><path d="M945.2249,950.3114v54.36H899.6388l22.1876-27.3479c-19.5981-14.1024-24.5907-47.6539-24.5907-47.6539l5.5515,1.5649,33.2534,9.3334a30.9587,30.9587,0,0,0,7.6753,8.4949A9.7855,9.7855,0,0,0,945.2249,950.3114Z" transform="translate(-333.5606 -75.3282)" fill="#1a5662"/><polyline points="615.246 876.3 615.246 876.837 615.246 910.584" fill="none"/><line x1="613.5563" y1="822.7707" x2="603.1125" y2="793.7928" fill="none"/><path d="M587.15,861.535a4.4969,4.4969,0,0,1,2.6949,2.302,5.4409,5.4409,0,0,1,.4911,2.0714l3.0623,29.8663a4.4843,4.4843,0,0,1-8.9219.914c-1.67-12.7315-11.651-26.3813-29.0847-26.3813H538.0343V920.99h11.89c5.36,0,11.5015-4.2282,11.5015-9.1867a4.4823,4.4823,0,0,1,8.9646,0v27.3379a4.4823,4.4823,0,0,1-8.9646,0c0-4.9584-6.1415-9.1866-11.5015-9.1866h-11.89v47.18h17.3569c17.4337,0,27.4148-13.6454,29.0847-26.3812a4.4843,4.4843,0,0,1,8.9219.9139l-3.0708,29.9389a5.3542,5.3542,0,0,1-.4186,1.8579,4.4821,4.4821,0,0,1-2.7461,2.4429,4.917,4.917,0,0,1-1.61.1965H501.1253a4.4845,4.4845,0,0,1,0-8.9689c8.8322-1.0762,7.9353-9.2593,7.9353-12.7656V883.0731c0-3.5064.8969-11.6894-7.9353-12.7657a4.4844,4.4844,0,0,1,0-8.9688h84.4268A5.0591,5.0591,0,0,1,587.15,861.535Z" transform="translate(-333.5606 -75.3282)" fill="#1a5662"/><path d="M638.6457,861.3441h94.0107a5.1208,5.1208,0,0,1,2.2678.4569,4.4973,4.4973,0,0,1,2.0372,2.0629,5.8457,5.8457,0,0,1,.4954,2.1867l3.0452,29.7253a4.4843,4.4843,0,0,1-8.9219.914c-1.67-12.7358-11.651-26.3813-29.0847-26.3813H700.36v94.062c0,3.1134.0512,11.557,7.9566,12.7656a4.4845,4.4845,0,0,1,0,8.9689H663.451a4.4845,4.4845,0,0,1,0-8.9689c8.8322-1.0762,7.9353-9.2592,7.9353-12.7656V883.0743c0-.8841.0555-2.0671,0-3.3569v-9.4088h-2.58c-17.4338,0-27.4148,13.6455-29.0847,26.3813a4.4843,4.4843,0,0,1-8.9219-.914l3.028-29.5246a6.991,6.991,0,0,1,.4015-2.1354,4.4806,4.4806,0,0,1,2.8786-2.601A5.9151,5.9151,0,0,1,638.6457,861.3441Z" transform="translate(-333.5606 -75.3282)" fill="#1a5662"/><path d="M443.2132,952.3284l-2.3846-1.982-15.6115-12.9758a31.902,31.902,0,0,1-27.6835,16.0245q-1.2646,0-2.505-.0968h-.0022a31.9156,31.9156,0,1,1,29.9122-48.1819l28.4084-23.748a66.07,66.07,0,1,0,.575,80.2956v-.4349Z" transform="translate(-333.5606 -75.3282)" fill="#1a5662"/><polyline points="87.906 832.69 91.378 829.788 119.786 806.04 120.243 805.659" fill="none"/><polyline points="88.679 859.567 90.14 860.781 91.657 862.042 107.268 875.018 109.653 877 120.361 885.901" fill="none"/><path d="M453.922,915.5122V961.664l-10.7088-9.3356-2.3419-2.0417-.0427.06c-16.0732,22.36-46.1365,21.691-46.1365,21.691l.3343-18.7391h.0022c19.9661-.1816,26.7967-12.51,28.6715-17.1887a15.05,15.05,0,0,0,.6067-1.7741l-22.03-.4458-.67-18.3775Z" transform="translate(-333.5606 -75.3282)" fill="#f7b53b"/><path d="M841.6657,555.38l-11.2063-9.3141-73.364-60.9777a149.9186,149.9186,0,0,1-130.0945,75.305q-5.9425,0-11.7718-.4551h-.01A149.9825,149.9825,0,1,1,755.7869,333.5145l133.501-111.6A309.96,309.96,0,0,0,644.0456,101.8668c-171.4748,0-310.485,139.0076-310.485,310.4824s139.01,310.485,310.485,310.485A309.9892,309.9892,0,0,0,891.99,599.2515v-2.0438Z" transform="translate(-333.5606 -75.3282)" fill="#1a5662"/><polyline points="405.912 271.825 422.226 258.186 555.727 146.586 557.871 144.794" fill="none"/><polyline points="409.542 398.13 416.406 403.834 423.535 409.76 496.899 470.738 508.105 480.052 558.429 521.88" fill="none"/><path d="M891.99,382.3681V599.2515L841.6657,555.38,830.66,545.7859c-.0669.0951-.1337.1876-.2006.28C754.9257,651.1412,613.6479,648,613.6479,648l1.5709-88.0614h.01c93.8277-.8535,125.9272-58.79,134.7374-80.7757a70.7332,70.7332,0,0,0,2.8511-8.3372L649.2926,468.73l-3.1467-86.3621Z" transform="translate(-333.5606 -75.3282)" fill="#f7b53b"/><path d="M1302.4315,102.98l-81.47,162.302a149.9866,149.9866,0,1,1-27.2972,280.2109V711.8105a310.7036,310.7036,0,0,0,82.29,11.0237c171.4774,0,310.485-139.01,310.485-310.485C1586.4394,249.7926,1461.5148,116.4151,1302.4315,102.98Z" transform="translate(-333.5606 -75.3282)" fill="#18c9c0"/><path d="M1314.3659,79.195l-11.9348,23.786-81.4666,162.3006-29.8368,59.4232-5.7168-45.0537a149.9748,149.9748,0,0,0-16.7922,250.5223,53.5658,53.5658,0,0,0,7.3877,6.2061V706.4019C1062.65,667.8765,978.725,565.6435,966.8976,442.3456q-1.4142-14.805-1.42-29.992c0-120.2784,68.3741-224.5762,168.3874-276.1343l-28.2734-60.8911Z" transform="translate(-333.5606 -75.3282)" fill="#f7b53b"/><path d="M1176.0064,536.38V804.2549H951.3705l109.3581-134.7791C964.081,599.98,939.5073,434.6477,939.5073,434.6477l27.39,7.6979,163.864,46.02a150.6265,150.6265,0,0,0,37.8571,41.8074A53.5658,53.5658,0,0,0,1176.0064,536.38Z" transform="translate(-333.5606 -75.3282)" fill="#1a5662"/><polyline points="860.104 467.519 860.104 470.165 860.104 636.482" fill="none"/><line x1="851.7745" y1="203.7103" x2="800.3038" y2="60.8978" fill="none"/></svg>